<svg xmlns="http://www.w3.org/2000/svg" width="65" height="65" viewBox="0 0 65 65"><defs><style>.a{fill:#00856e;}.b{fill:none;stroke:#fff;stroke-linecap:round;stroke-linejoin:round;stroke-width:3px;}</style></defs><g transform="translate(-405 -495)"><circle class="a" cx="32.5" cy="32.5" r="32.5" transform="translate(405 495)"/><path class="b" d="M29.7,22.907v4a2.668,2.668,0,0,1-2.909,2.668,26.4,26.4,0,0,1-11.514-4.1,26.018,26.018,0,0,1-8.005-8.005,26.4,26.4,0,0,1-4.1-11.568A2.668,2.668,0,0,1,5.834,3h4A2.668,2.668,0,0,1,12.5,5.295a17.132,17.132,0,0,0,.934,3.749,2.668,2.668,0,0,1-.6,2.815l-1.694,1.694a21.348,21.348,0,0,0,8.005,8.005l1.694-1.694a2.668,2.668,0,0,1,2.815-.6,17.132,17.132,0,0,0,3.749.934A2.668,2.668,0,0,1,29.7,22.907Z" transform="translate(421.332 511.5)"/></g></svg>