<svg xmlns="http://www.w3.org/2000/svg" width="40" height="40" viewBox="0 0 40 40"><defs><style>.a{fill:#00856e;}</style></defs><path class="a" d="M41.167,4.5H7.833A3.33,3.33,0,0,0,4.5,7.833V41.167A3.33,3.33,0,0,0,7.833,44.5H41.167A3.33,3.33,0,0,0,44.5,41.167V7.833A3.33,3.33,0,0,0,41.167,4.5ZM35.7,18.51,21.771,32.5h-.01a1.881,1.881,0,0,1-1.208.573,1.824,1.824,0,0,1-1.219-.594L13.5,26.646a.415.415,0,0,1,0-.594L15.354,24.2a.4.4,0,0,1,.583,0l4.625,4.625,12.708-12.8a.411.411,0,0,1,.292-.125h0a.378.378,0,0,1,.292.125l1.823,1.885A.411.411,0,0,1,35.7,18.51Z" transform="translate(-4.5 -4.5)"/></svg>