<svg xmlns="http://www.w3.org/2000/svg" width="41" height="41" viewBox="0 0 41 41"><defs><style>.a{fill:#fff;}.b{fill:#08150a;}</style></defs><g transform="translate(-1086.231 -5102.231)"><circle class="a" cx="20.5" cy="20.5" r="20.5" transform="translate(1086.231 5102.231)"/><path class="b" d="M11.468,0C8.353,0,7.964.014,6.74.069A8.456,8.456,0,0,0,3.957.6,5.616,5.616,0,0,0,1.925,1.925,5.6,5.6,0,0,0,.6,3.957,8.432,8.432,0,0,0,.069,6.74C.011,7.964,0,8.353,0,11.468s.014,3.5.069,4.728A8.462,8.462,0,0,0,.6,18.98a5.624,5.624,0,0,0,1.323,2.032,5.608,5.608,0,0,0,2.032,1.323,8.467,8.467,0,0,0,2.784.533c1.223.057,1.612.069,4.728.069s3.5-.014,4.728-.069a8.486,8.486,0,0,0,2.784-.533,5.861,5.861,0,0,0,3.354-3.354,8.462,8.462,0,0,0,.533-2.784c.057-1.223.069-1.612.069-4.728s-.014-3.5-.069-4.728a8.481,8.481,0,0,0-.533-2.784,5.629,5.629,0,0,0-1.323-2.032A5.588,5.588,0,0,0,18.98.6,8.437,8.437,0,0,0,16.2.069C14.973.011,14.584,0,11.468,0Zm0,2.064c3.061,0,3.426.015,4.635.068a6.318,6.318,0,0,1,2.128.4A3.774,3.774,0,0,1,20.409,4.7,6.332,6.332,0,0,1,20.8,6.833c.054,1.21.067,1.573.067,4.635s-.014,3.426-.071,4.635a6.454,6.454,0,0,1-.4,2.128,3.641,3.641,0,0,1-.859,1.321,3.578,3.578,0,0,1-1.319.856,6.378,6.378,0,0,1-2.136.395c-1.218.054-1.576.067-4.644.067S8.012,20.856,6.8,20.8a6.5,6.5,0,0,1-2.137-.4,3.551,3.551,0,0,1-1.318-.859,3.482,3.482,0,0,1-.86-1.319,6.508,6.508,0,0,1-.4-2.136c-.043-1.2-.058-1.576-.058-4.629s.015-3.427.058-4.646a6.5,6.5,0,0,1,.4-2.135,3.4,3.4,0,0,1,.86-1.32A3.392,3.392,0,0,1,4.659,2.5a6.347,6.347,0,0,1,2.123-.4C8,2.05,8.358,2.036,11.425,2.036l.043.029Zm0,3.515a5.889,5.889,0,1,0,5.889,5.889A5.889,5.889,0,0,0,11.468,5.579Zm0,9.712a3.823,3.823,0,1,1,3.823-3.823A3.822,3.822,0,0,1,11.468,15.291Zm7.5-9.944A1.376,1.376,0,1,1,17.59,3.972,1.377,1.377,0,0,1,18.966,5.347Z" transform="translate(1095.689 5111.108)"/></g></svg>