<svg xmlns="http://www.w3.org/2000/svg" width="62.645" height="62.651" viewBox="0 0 62.645 62.651"><defs><style>.a{fill:#fff;}.b{fill:#353535;}</style></defs><g transform="translate(-1724.416 -928.94)"><rect class="a" width="62.645" height="62.651" transform="translate(1724.416 928.94)"/><path class="b" d="M628.48,1900.989v0h0a1.124,1.124,0,0,1,.023-.224c0-.01.007-.019.009-.03a1.124,1.124,0,0,1,.057-.183l0,0a1.129,1.129,0,0,1,.24-.357l7.066-7.042a1.129,1.129,0,0,1,1.6,1.594l-5.135,5.117,17.619-.018h0a1.127,1.127,0,1,1,0,2.253l-17.623.018,5.137,5.119a1.129,1.129,0,0,1-1.6,1.593l-7.054-7.03a1.123,1.123,0,0,1-.321-.587c-.007-.034-.007-.069-.01-.1A1.106,1.106,0,0,1,628.48,1900.989Z" transform="translate(1115.877 -940.614)"/></g></svg>