<svg xmlns="http://www.w3.org/2000/svg" width="62.645" height="62.651" viewBox="0 0 62.645 62.651"><defs><style>.a{fill:#fff;}.b{fill:#353535;}</style></defs><g transform="translate(-1806.851 -928.94)"><rect class="a" width="62.645" height="62.651" transform="translate(1806.851 928.94)"/><path class="b" d="M651.091,1900.989h0a1.125,1.125,0,0,0-.023-.223c0-.01-.007-.02-.009-.03a1.125,1.125,0,0,0-.057-.183l0,0a1.131,1.131,0,0,0-.24-.356l-7.066-7.042a1.129,1.129,0,1,0-1.6,1.594l5.135,5.117-17.619-.018h0a1.127,1.127,0,1,0,0,2.253l17.623.018-5.137,5.119a1.129,1.129,0,0,0,1.6,1.594l7.054-7.03a1.124,1.124,0,0,0,.321-.587c.007-.034.007-.07.011-.1A1.125,1.125,0,0,0,651.091,1900.989Z" transform="translate(1198.464 -940.614)"/></g></svg>