<svg xmlns="http://www.w3.org/2000/svg" width="79.43" height="93.36" viewBox="0 0 79.43 93.36"><defs><style>.a{fill:#e9c088;}.b{fill:#353535;}</style></defs><g transform="translate(-1621.456 -1789.281)"><rect class="a" width="79.43" height="93.36" transform="translate(1621.456 1789.281)"/><path class="b" d="M1679.314,1905.307v0a1.716,1.716,0,0,0-.035-.342c0-.016-.01-.03-.014-.045a1.726,1.726,0,0,0-.087-.279l0-.007a1.722,1.722,0,0,0-.367-.545l-10.8-10.763a1.725,1.725,0,1,0-2.444,2.436l7.849,7.821-26.93-.027h0a1.722,1.722,0,1,0,0,3.444l26.936.027-7.852,7.825a1.725,1.725,0,0,0,2.444,2.435l10.782-10.744a1.717,1.717,0,0,0,.491-.9c.01-.052.01-.106.016-.159A1.68,1.68,0,0,0,1679.314,1905.307Z" transform="translate(-0.024 -70.429)"/></g></svg>